<?xml version="1.0" encoding="UTF-8"?>
<svg id="_레이어_1" data-name="레이어 1" xmlns="http://www.w3.org/2000/svg" xmlns:xlink="http://www.w3.org/1999/xlink" viewBox="0 0 426.2 345.37">
  <defs>
    <style>
      .cls-1, .cls-2 {
        fill: none;
      }

      .cls-2 {
        stroke: #000;
        stroke-linecap: round;
        stroke-linejoin: round;
        stroke-width: 1.45px;
      }

      .cls-3 {
        clip-path: url(#clippath);
      }

      .cls-4 {
        fill: #fff;
      }
    </style>
    <clipPath id="clippath">
      <rect class="cls-1" x="68.13" y="-20.61" width="289.95" height="386.59" transform="translate(10.01 357.04) rotate(-81.25)"/>
    </clipPath>
  </defs>
  <path class="cls-4" d="m119.27,257.44h.11s0,.41,0,.41h241.53v-.45s.72.04,1.01.04c26.46,0,47.99-21.45,47.99-47.91s-20.51-46.97-46.22-47.83c1.5-5.34,2.37-10.95,2.37-16.77,0-34.12-27.66-61.78-61.78-61.78-27.87,0-51.41,18.46-59.11,43.82-10.22-7.75-22.91-12.4-36.73-12.4-32.99,0-59.79,26.26-60.79,59.01-7.78-5.82-17.4-9.31-27.86-9.31-25.73,0-46.58,20.86-46.58,46.58s20.34,46.58,46.07,46.58h0Z"/>
  <g class="cls-3">
    <path class="cls-2" d="m400.45,215.52c-27.94-38.71-90.63,8.8-130.89-25.51-5.45-4.64-11.05,8.47-12.65,11.34-1.93,3.46-4.68,6.4-7.36,9.47-4.87,5.58-10.09,10.37-14.97,15.43-6.18,6.4-6.04,12.83-13.21,18.73,3.16-10.1-3.53-8.39-10.61-12.53,4.5,3.27,7.95,9.67,6.34,14.87-2.05,6.65-8.74,14.92-14.88,18.31-2.87,1.59-8.58,4.41-11.1,6.57-3.3,2.83-3.15,6.78-6.26,9.94-3.15,3.21-2.55,1.08-6.4,2.06-4.01,1.02-4.05,4.87-7.5,6.57-2.63,1.3-7.26-.15-9.37-3.13-2.27-3.22-1.29-3.65,1.62-5.62,3.71-2.51,8.19-3.77,11.51-6.83,3.61-3.32,7.82-5.3,11.45-8.49,6.46-5.68,9.53-14.43,15.54-20.72,6.64-6.94,3.84-13.87,5.99-22.76,1.78-7.38,5.23-17.61,8.13-24.66.99-2.4,2.58-4.3,1.6-6.44-.93-2.04-4.53-3.31-6.35-4.15-2.33-1.08-12.58-7.92-14.03-13.01-.57-1.98,5.25-5.11-2.27-9.04-1.46-.76-2.61.34-4.39.12,7.05,4.25,4,18.47,1.54,24.51-2.02,4.96-1.43,7.39.11,12.21.74,2.33,1.93,4.93.81,7.26-1.31,2.72-3.51,2.5-6.23,2.38-3.93-.17-5.85.17-9.44,2.12-3.82,2.08-12.75,6.08-16.87,3.86,1.91-4.42,6.65-6.2,9.98-9.39,4.53-4.34,6.57-7.49,8.43-13.39,3.57-11.34,1.05-21.62.43-33.32-.36-6.97,2.01-17.96,11.09-18.11,3.34-.06,12.78,5.37,13.59,6.84,1.48,2.71,2.29,15.62-1.64,10.66,2.81-4.28,1.19-14.66,8.35-8.2,2.03,1.83,4.85,2.56,7.15,4.11,1.47.99,3.71,1.7,5.23,2.5,2.85,1.5,14,4.88,16.75,7.4.73.67,3.6.48,4.3,1.15,1.76,1.69-10.1-.99-8.99,3.51,1.69,6.83,6.39,8.97,13.44,8.44,3.73-.28,3.44-1.14,6.16-.48,13.99,3.37,14.9,4.75,22.07,3.67,6.89-1.04,12.85-3.47,16.88-9.38,4.97-7.28-3.3-62.71-16.59-47.57-10.2,11.63-33.22,10.87-12.46-19.87,1.49-2.2,4.15-4.87,3.3-7.77-1.08-3.67,4.14-6.8,5.05-4.87.39.84-.3,2.24.57,2.57,2.19.83,9.5-9.59,10.83-2.36.98,5.32,10.08,20.91,13.08,8.78,3.73-15.09-5.92-19.44-16.01-22.17-9.61-2.6-16.74,5.92-19.38,14.82-.85,2.87-2.5,8.66,1.36,10.11,4.56,1.72.94,5.05,4.98,11.03,4,5.93,4.89,4.6,10.52,2.6,17.22-6.12,24.3-32.93,2.58-35.1-20.43-2.04-15.92,24.75-26.1,27.33-1.71.43-11.49-1.77-13.83-.5-5.2,2.83-9.42,8.6-14.41,11.89-5.79,3.83-2.4,7.18,1.52,10.97-3.18.91-4.03-3.67-6.69-1.86-2.3,1.56-5.28,5.6-6.6,7.86-1.88,3.21-2.18,5.97.07,8.6,5.77,6.72,11.22,9.68,17.89,11.06,3.04.63,9.65,2.03,11.56,3.87,4.33,4.16,7.81,5.22,13.74,5.07,2.61-.06,9.05-2.09,8.58-5.94-.57-4.72-7.89-2.68-10.25-5.02.89-2.39,3.32-.38,4.96-2.36-2.6-1.87-6.39-2.11-9.14-1.67-3.35.54-4.81,2.78-8.07,2.17-5.53-1.04-14.04-11.21-16.96-11.77,2.46-.31,4.63-3.14,5.09-4.39,3.74,2.51,5.02-5.93,9.59-7.52.25,14.42,30.17,8.03,37.72,35.27,1.08,3.9-.08-6.98,2.74-9.36,20.97-17.63,15.33-5.06,19.35-2.89,5.39-2.14,15.88-16.89,19.72-21.01,2.53-2.72,9.69-17.43,12.71-19.65,6.95-5.09-1.83-6.64-5.88-9.19-10.68-6.72-9.02-14.16-32.87-31.16-6.29-4.48-18.39-4.39-22.44-8.15-2.31,5.34-6.65,3.2-15.75,17.96-6.4,10.39-13.85,22.36-26.67,24.43-44.71-32.72-115.03,22.2-195.36-33.8"/>
  </g>
</svg>