<?xml version="1.0" encoding="UTF-8"?>
<svg id="_레이어_1" data-name="레이어 1" xmlns="http://www.w3.org/2000/svg" viewBox="0 0 378.24 253.71">
  <defs>
    <style>
      .cls-1 {
        fill: #fff;
      }

      .cls-2 {
        fill: #231c1d;
      }
    </style>
  </defs>
  <path class="cls-1" d="m324.14,112.19c-7.11-27.69-32.17-48.19-62.08-48.19-4.46,0-8.82.46-13.02,1.33-7.15-26.43-31.23-45.91-59.92-45.91-22.95,0-42.94,12.47-53.7,30.97-6.27-2.1-12.95-3.28-19.92-3.28-34.69,0-62.82,28.12-62.82,62.81v.2C23.25,112.22,0,136.7,0,166.67s25.4,56.73,56.74,56.73c7.16,0,13.99-1.38,20.3-3.81,6.97,3.27,14.72,5.16,22.92,5.16,6.52,0,12.74-1.21,18.53-3.33,9.27,7.48,21.05,11.97,33.88,11.97,14.35,0,27.37-5.64,37.04-14.77,5.1,1.3,10.41,2.07,15.91,2.07,1.81,0,3.59-.12,5.36-.27,7.15,2.75,14.89,4.32,23.01,4.32,15.89,0,30.4-5.81,41.6-15.37,10.77,12.29,26.54,20.1,44.17,20.1,32.45,0,58.76-26.31,58.76-58.76s-23.83-56.14-54.09-58.52h0Z"/>
  <path class="cls-2" d="m181.76,45.71c-.48.62-1.02,1.18-1.55,1.74-1.21,1.27-2.36,2.46-2.56,4.06-.09.74.18,1.79.67,2.87.16-.22.31-.41.44-.57,2.03-2.57,2.68-4.95,3.01-8.09h0Zm-2.78,9.94c.94,1.61,2.22,3.07,3.3,3.52.36.15.69.24,1.01.28,1.11-1.03,2.17-1.83,3.09-2.17.48-.93.89-2.16,1.24-3.67.48-2.09-.05-14.72-2.8-16.95-.38-.31-.75-.35-1.2-.14,0,.01,0,.02,0,.03.29,2.38.53,4.33-.54,6.87.03.86.05,1.49.02,1.84-.33,3.67-.99,6.38-3.34,9.35-.21.26-.47.62-.78,1.05h0Zm-37.43,2.39c-.46,0-.94.04-1.45.14-1.31.24-2.52.69-3.66,1.29.49-.03.98-.05,1.47-.07,2.11-.1,4.15-.19,6.09-.89-.76-.3-1.57-.47-2.46-.47h0Zm31.19-24.14c.25,1.72.17,3.46.08,5.31-.08,1.82-.17,3.7.04,5.81.58,5.72-1.1,9.91-2.88,14.36-.22.54-.44,1.09-.65,1.65,1.15-1.84,2.2-3.62,2.99-5.43.26-.6.52-1.19.78-1.78,2.6-5.88,4.65-10.52,1.67-16.46-.67-1.33-1.33-2.47-2.03-3.46h0Zm-16.07-11.25c-2.07,0-4.16.39-6.16,1.22-6.81,2.8-8.73,5.88-11.64,10.54-.6.96-1.22,1.95-1.93,3.03-2.1,3.16-5.12,4.88-8.05,6.53-2.32,1.32-4.72,2.68-6.6,4.76-4.07,4.51-2.83,12.46.73,17.8.19-.11.37-.23.55-.35-.04-.1-.08-.2-.11-.3-2.55-6.86.17-13.9,7.46-19.32,2.29-1.7,4.41-2.82,6.29-3.81,3.4-1.8,6.34-3.36,9.07-7.67,4.65-7.37,10.38-10.09,17.51-8.31,2.17.54,3.96,1.21,5.5,2.13-.08-.11-.16-.22-.25-.33-3-3.82-7.61-5.91-12.36-5.91h0Zm-31.54,43.97c.28.69.59,1.4.9,2.13.04.08.07.17.11.25,1.5-2.63,3.21-5.15,5.23-7.22-.54.23-1.08.51-1.61.86-.97.63-1.87,1.49-2.75,2.31-.61.57-1.22,1.15-1.88,1.68h0Zm33.39-2.17c-.15.51-.38,1.93-.09,5.51.19,2.37,1.79,4.98,4.11,6.87-.02-.74.03-1.5.15-2.28.51-3.16,2.09-6.2,3.88-9.15-.04-.12-.04-.25,0-.37.65-2.21,1.45-4.2,2.22-6.13,1.72-4.29,3.34-8.34,2.79-13.75-.22-2.2-.14-4.13-.05-6,.13-2.74.23-5.08-.69-7.48-1.88-1.79-4.16-2.86-7.37-3.66-6.62-1.64-11.74.82-16.11,7.75-2.9,4.6-5.98,6.23-9.55,8.12-1.92,1.02-3.91,2.07-6.12,3.71-6.77,5.03-9.34,11.5-7.05,17.76.5-.42.99-.88,1.49-1.35.92-.86,1.86-1.75,2.92-2.45,1.48-.97,3-1.48,4.53-1.76,1.84-1.41,3.92-2.44,6.29-2.88,2.23-.42,4.09-.02,5.67.89.4-.22.79-.48,1.18-.77,3.11-2.37,4.49-5.3,5.94-8.4.81-1.73,1.65-3.52,2.82-5.25,2.32-3.44,12.89-6.85,13.65-6.85,0,0,0,0,0,0,.22,0,.44.14.55.33,1.47,2.62.9,5.69.39,8.41-.17.93-.34,1.82-.42,2.65-.2,2.03-.63,3.19-1.08,4.42-.33.9-.67,1.82-.97,3.21-.35,1.58-1.76,6.87-5.09,8.63-1.23.65-2.57.74-3.99.28h0Zm5.36,13.34s.06.03.08.05c.57.35,1.15.64,1.72.86,2.99-1.68,5.67-2.99,8.26-3.17.9-1.57,1.62-3.45,2.33-5.31,1.03-2.7,2.09-5.5,3.73-7.33l.23-.25c.66-.74,1.33-1.47,1.98-2.14-.13-.04-.27-.09-.41-.15-1.23-.5-2.58-1.93-3.63-3.58-3.43,4.77-6.98,9.35-9.68,9.55-.32.02-.63-.02-.91-.11-1.69,2.8-3.16,5.66-3.62,8.54-.17,1.05-.18,2.05-.08,3.03h0Zm3.58,1.4c1.12.18,2.19.08,3.12-.31.94-.39,1.73-1.07,2.42-1.94-1.71.32-3.51,1.15-5.53,2.25h0Zm-3.32.22s.02.1.03.14c.04-.02.08-.05.12-.07-.05-.02-.1-.05-.15-.08h0Zm11.26-3.86c2.23.24,4.42,1.46,6.71,4.17.79-1.76,1.75-2.83,2.77-3.95.58-.64,1.18-1.31,1.76-2.13,1.47-2.08,1.44-3.83,1.39-6.05-.01-.73-.03-1.48.01-2.29.03-.52.21-1.2.42-1.99.39-1.46.92-3.46.27-4.36-.25-.35-.71-.54-1.38-.58-.03,0-.07,0-.11,0-.56.94-1.21,1.59-1.95,1.97-.47.24-.97.38-1.49.4-.77.74-1.65,1.66-2.62,2.75l-.23.26c-1.48,1.65-2.5,4.33-3.49,6.93-.64,1.67-1.28,3.37-2.07,4.88h0Zm-49.4-3.6c-.19.37-.38.74-.57,1.11-2.31,4.56-2.73,8.83-2.7,13.44,1-.44,1.89-1.09,2.66-2.02,3.28-3.99,2.3-8.28.62-12.53h0ZM93.23,8.26c-4.32,0-7.78,1.31-10,6.02-2.78,5.89-1.23,10.74.57,16.34.47,1.48.97,3.01,1.38,4.59.28,1.06.57,2.13.87,3.21,1.6,5.85,3.26,11.89,2.96,17.91-.11,2.16-.41,4.23-.71,6.24-.72,4.85-1.39,9.43.84,14.35,2.25,4.95,8.86,6.25,14.69,7.39,1.4.27,2.73.53,3.92.83.6.15,1.24.32,1.9.5,3.78,1.01,8.22,2.19,11.78,1.29-.05-4.83.34-9.53,2.84-14.45.35-.69.71-1.38,1.08-2.07-.16-.39-.33-.77-.5-1.16-.27-.61-.53-1.24-.79-1.86-.31.2-.63.39-.96.55-.28.14-.62.05-.8-.2-4.04-5.66-5.75-14.55-.95-19.87,2.01-2.24,4.51-3.65,6.92-5.01,2.92-1.66,5.68-3.22,7.61-6.13.7-1.06,1.32-2.05,1.91-3,2.93-4.7,5.04-8.1,12.24-11.05,7.13-2.93,15.37-.83,20.02,5.09.86,1.09,1.47,2.15,1.9,3.18,1.47,1.47,2.73,3.35,3.98,5.83,3.26,6.48.98,11.61-1.64,17.56-.26.58-.52,1.17-.78,1.77-1.05,2.43-2.61,4.88-4.12,7.25-.36.56-.72,1.13-1.07,1.69.03,0,.06,0,.09,0,2.4-.18,6.85-6.39,8.98-9.37.03-.04.06-.08.09-.12-.77-1.51-1.23-3.07-1.09-4.2.25-2.02,1.6-3.43,2.91-4.79.81-.84,1.58-1.64,2.08-2.57.16-.29.3-.57.42-.84-.11-3.49-.05-5.76.5-6.95-.05-.38-.09-.76-.13-1.17-.57-5.76.51-11.56,1.47-16.68.29-1.54.56-2.99.78-4.42,1.23-7.8-1.02-10.78-9.28-12.28-6.31-1.14-14.89.52-22.44,2.29-8.95,2.1-17.82,2.96-27.22,3.87l-1.8.17c-1.34.13-2.71.28-4.04.42-6.59.71-13.41,1.45-20.13.44-2.23-.34-4.33-.6-6.25-.6h0Zm53.48,50.34c2.38,1.87,4.14,4.89,5.77,7.69.69,1.19,1.35,2.32,2.04,3.33,1.85,2.74,3.89,5.92,4.77,8.85.45,1.49.39,3.2.33,4.84-.07,2-.14,4.06.72,5.61.81,1.47,1.27,1.87,1.44,1.98.36-.58.39-3.23-.07-5.07-.81-3.25-.62-4.27,1.3-5.57-.14-.57-.25-1.14-.34-1.73-3.09-2.13-5.29-5.46-5.53-8.48-.32-3.98-.1-6.29.65-6.85.23-.17.52-.21.78-.11,1.23.49,2.32.47,3.33-.07,2.92-1.54,4.21-6.74,4.44-7.77.33-1.47.7-2.48,1.02-3.37.44-1.2.82-2.24,1-4.11.09-.89.26-1.8.44-2.76.46-2.46.93-4.99-.04-7.12-2.01.58-10.46,3.56-12.23,6.19-1.11,1.65-1.93,3.4-2.72,5.08-1.46,3.11-2.96,6.32-6.33,8.88-.26.2-.52.38-.78.55h0Zm17.78,22.24c.3,1.04.67,2.08,1.04,3.14,1.02,2.86,2.07,5.82,1.89,9.29-.1,1.9-.37,3.78-.74,5.65,1.19-1.13,2.44-2.19,3.72-3.16.43-.32.89-.66,1.36-1.01,2.36-1.75,5.04-3.72,6.65-5.8,1.44-1.86,1.91-3.55,2.45-5.5.21-.75.42-1.53.7-2.35-.01-.01-.02-.03-.03-.04-2.38-3-4.57-4.21-6.87-4.27-.94,1.47-2.09,2.65-3.61,3.27-1.56.64-3.39.64-5.26.04h-.01c-.5.28-.92.52-1.29.74h0Zm-28.2,13.69c1.72,2.18,4.23,4.76,7.16,6.01,1.22.52,2.62.73,3.96.94.34.05.68.1,1.02.16-.53-.39-1.06-.78-1.58-1.17-2.82-2.11-5.49-4.1-8.74-5.15-.61-.2-.99-.42-1.27-.58-.23-.13-.36-.2-.54-.2h0Zm29.86,6.74c-.31,1.25-.65,2.48-1.01,3.71,3.82-1.22,7.31-4.21,10.99-8.17.56-.6,1.15-1.2,1.72-1.79,3.83-3.93,7.48-7.66,4.64-12.58-.14.46-.26.9-.38,1.34-.55,2-1.07,3.88-2.67,5.94-1.72,2.22-4.47,4.25-6.9,6.05-.47.35-.92.68-1.35,1-1.75,1.32-3.43,2.83-5.03,4.49h0Zm-1.89,2.09c-.59.7-1.17,1.42-1.73,2.16.39-.04.77-.1,1.15-.17.2-.66.39-1.33.58-1.99h0Zm-4.25,5.89c.8.2,1.52.57,2.16,1.07.23-.78.47-1.56.71-2.33.13-.43.26-.85.39-1.28-.56.08-1.12.13-1.7.15-.54.78-1.06,1.58-1.56,2.39h0Zm-.45,1.22c-.76,1.16-.2,3.64.87,6.42.37-1.74.83-3.47,1.33-5.19-.64-.62-1.37-1.05-2.2-1.23h0Zm1.76,8.54c1.56,3.49,3.59,7.06,4.61,8.86.09.16.18.31.26.45,0-.75-.02-1.49-.05-2.22-.17-3.93-1.09-9.88-3.38-13.22-.58,2.06-1.09,4.09-1.43,6.13h0Zm-.32,2.36c-.4,3.99-.02,8,1.8,12.13.39.89,1.04,2.27,1.92,3.9.84-2.14,1.24-4.38,1.39-6.62-.24-.39-.47-.79-.69-1.19-.16-.29-.37-.66-.61-1.08-1.36-2.39-2.69-4.83-3.81-7.14h0Zm-2.98-8.49c-4.16,8.48-5.59,18.28-1.89,27.3.68,1.65,1.3,3.43,1.89,5.2.89-.59,1.71-1.22,2.45-1.88,1.59-1.42,2.75-2.99,3.6-4.64-1.15-2.04-1.97-3.78-2.44-4.84-2.23-5.05-2.38-9.98-1.63-14.81-1.04-2.38-1.78-4.56-1.99-6.33h0Zm-3.39-7.5c2.31,4.68-1.09,12.55-3.08,17.14-.19.44-.37.86-.53,1.24-1.59,3.76-3.42,7.52-5.18,11.15-1.76,3.62-3.58,7.37-5.16,11.1-.65,1.53-1.4,3.1-2.33,4.57.16,0,.31,0,.47,0,1.54,0,2.99-.02,4.36-.1,4.5-.26,9.65-1.96,13.72-4.4-.63-1.89-1.26-3.7-1.96-5.42-3.13-7.61-2.99-16.24.39-24.94,1.2-3.08,2.79-6.09,4.69-8.91-.89-.08-1.81-.24-2.75-.5-.92-.25-1.79-.57-2.63-.94h0Zm10.89,33.45c2.96,5.12,7.9,11.79,14.4,13.96,1.66.55,3.33.78,5.02.67-.51-.52-1.03-1.03-1.54-1.54-1.96-1.96-4-3.98-5.68-6.1-1.06-1.34-2.18-2.67-3.36-4.08-2.47-2.96-5.01-6-7.13-9.17-.26,2.13-.78,4.25-1.72,6.27h0Zm-40.07,16.96c4.29.54,7.6-.65,10.32-3.89-3.9.1-7.69.49-10.59,2.31,0,.48.11,1.13.27,1.58h0Zm28.82-3.7c-.15,0-.27.03-.36.09-.59.34-.87,1.86-.22,3.98,1.12,3.61,3.71,7.19,6.23,10.65,1.49,2.05,2.91,4,4.04,5.96-.8-3.21-1.79-6.37-2.79-9.45l-.25-.79c-.96-2.99-2.15-6.71-4.08-8.77-1.15-1.23-2.02-1.67-2.56-1.67h0Zm15.76,38.33s.03.04.04.06c.28.39.93.52,1.92.37,1.68-.24,4.55-2.69,6.45-4.3.63-.54,1.18-1.01,1.62-1.34,2.95-2.27,5.13-4.67,7.03-6.93,4.17-4.94,7.92-10.84,4.15-17.17-1.38-2.32-3.22-4.44-5.17-6.48-2.2.3-4.4.09-6.58-.63-6.57-2.19-11.57-8.64-14.68-13.83-.87,1.52-2.02,2.96-3.51,4.29-.86.77-1.83,1.5-2.89,2.18.08.23.15.47.23.7,1.49,4.54,3.04,9.24,5.42,12.87,1.11,1.69,2.86,3.17,4.71,4.74,3.45,2.92,7.02,5.94,6.53,10.59-.12,1.12-1.05,3-2.23,5.38-1.24,2.51-2.98,6-3.23,8.11.07.46.12.92.17,1.37h0Zm-47.32-102.54c.02.91.05,1.84.08,2.79.05,1.55.11,3.16.11,4.8.02,7.99-.95,15.9-2.79,22.86-1.05,3.96-2.73,7.59-4.36,11.1-1.52,3.28-3.09,6.67-4.11,10.27-1.25,4.42-1.2,7.56.14,9.58.87,1.32,2.23,1.86,3.66,2.43,1.39.55,2.82,1.12,3.87,2.44,1.84,2.3,2.27,5.22,2.73,8.33.48,3.26.98,6.64,3.25,9.24,1.63,1.87,3.6,3.45,5.5,4.98,3.05,2.45,6.2,4.99,8.17,8.8,1.43,2.78,2.86,6.05,1.6,9.76-.44,1.31-1.54,2.59-2.6,3.83-1.41,1.65-2.86,3.35-2.61,4.88.16.99.63,1.72,1.43,2.21,3.56,2.19,12.6-.69,16.94-2.07.88-.28,1.64-.52,2.19-.67.49-.14.96-.26,1.41-.37,3.25-.84,5.21-1.35,6.62-4.61,1.27-2.94,1.58-7.17,1.76-10.9.16-3.29-.13-6.6-.71-9.88-.57-1.24-1.17-2.43-1.79-3.58-1.15-2.12-2.7-4.26-4.34-6.52-2.57-3.55-5.24-7.21-6.42-11.03-.8-2.58-.48-4.73.8-5.47.68-.39,2.17-.69,4.51,1.81,2.12,2.27,3.37,6.15,4.36,9.26l.25.78c1.51,4.64,2.98,9.45,3.85,14.34,1.39,3.05,2.42,6.01,3.07,8.86.65-1.79,1.65-3.79,2.63-5.77,1.03-2.08,2.01-4.05,2.11-4.94.42-3.97-2.74-6.65-6.08-9.48-1.84-1.56-3.75-3.17-4.96-5.02-2.48-3.78-4.05-8.55-5.57-13.18-.05-.14-.09-.27-.14-.41-4.21,2.46-9.46,4.17-14.06,4.43-1.4.08-2.87.09-4.43.1-.45,0-.91,0-1.36,0-2.61,3.5-6.44,6.03-12.54,5.14-.2-.03-.38-.15-.47-.33-.38-.72-.62-2.08-.51-2.92.02-.18.13-.35.28-.45,3.45-2.31,8.14-2.65,12.56-2.71.97-1.4,1.87-3.09,2.71-5.09,1.59-3.76,3.42-7.53,5.19-11.16,1.76-3.62,3.57-7.35,5.16-11.09.16-.39.35-.81.54-1.25,2.24-5.18,6.41-14.81,1.37-17.96-1.26-.79-2.85-1.03-4.53-1.29-1.43-.22-2.9-.44-4.27-1.03-3.51-1.49-6.41-4.69-8.22-7.11-.12-.15-.16-.35-.11-.54.05-.19.18-.34.35-.43,1.26-.59,1.75-.45,2.5-.02.26.15.55.32,1.03.47,3.46,1.12,6.33,3.27,9.11,5.35,3,2.24,6.11,4.57,10,5.64,1.13.31,2.22.48,3.27.51,1.26-1.75,2.64-3.41,4.11-4.97.59-2.45,1.03-4.93,1.16-7.41.16-3.22-.84-6.06-1.82-8.8-.33-.93-.67-1.88-.96-2.84-1.17.91-.99,1.62-.41,3.95.32,1.27.92,5.98-.73,6.63-1.15.45-2.22-1.15-3.02-2.6-1.02-1.86-.95-4.1-.88-6.28.05-1.62.11-3.14-.28-4.43-.83-2.76-2.81-5.84-4.6-8.5-.71-1.05-1.38-2.2-2.08-3.4-1.73-2.97-3.5-6-5.91-7.65-2.46,1.16-5.01,1.28-7.49,1.39-1.32.06-2.6.12-3.85.32-2.99,2.37-5.35,5.86-7.35,9.48,1.98,4.76,3.57,9.96-.41,14.81-1.03,1.26-2.27,2.08-3.63,2.58h0Zm12.03,138.67c-2.25,1.7-3.99,3.69-4.88,6.14,1.17-.19,2.13-.89,3.13-1.62.92-.67,1.86-1.35,3.03-1.72-.37-.95-.81-1.87-1.28-2.8h0Zm-15.29-9.06c-1.01.36-2.1.6-3.17.85-2.88.65-5.6,1.27-6.7,3.79-.65,1.49-.1,3.05.48,4.71.4,1.14.81,2.31.81,3.48,0,1.95-.67,4.1-1.27,6.01-.19.61-.37,1.19-.52,1.74-.21.75-.47,1.54-.74,2.38-1.43,4.41-3.05,9.4,1.33,11.83,3.62-3.51,5.92-7.7,8.36-12.13,1.69-3.07,3.43-6.23,5.64-9.13-4.08-4.63-5.03-8.97-4.23-13.53h0Zm-9.65,36.22c-.09,0-.19-.02-.28-.06-5.88-2.84-3.86-9.05-2.38-13.59.27-.82.52-1.6.72-2.32.16-.57.34-1.16.54-1.78.57-1.82,1.21-3.87,1.21-5.62,0-.95-.36-1.97-.74-3.06-.61-1.74-1.3-3.71-.45-5.66,1.36-3.11,4.53-3.83,7.59-4.53,1.36-.31,2.67-.61,3.77-1.1.78-3.08,2.26-6.29,4.05-9.77-1.89-.61-3.74-1.15-5.53-1.67-8.72-2.53-16.24-4.71-22.49-13.91-4.32-6.37-11.32-14.9-20.13-19.35-5.93-2.99-17.5-7.71-28.3-5.7-4.86.9-19.03,6.82-19.26,13.13-.01.35-.31.64-.67.62-.35-.01-.63-.31-.62-.67.27-7.44,15.51-13.46,20.31-14.35,10.62-1.97,21.7,2.07,29.12,5.81,9.06,4.57,16.21,13.27,20.62,19.77,5.98,8.82,13.3,10.94,21.78,13.4,2.03.59,4.13,1.2,6.3,1.92.18.06.32.19.39.37.07.17.06.37-.02.54-1.65,3.18-3.05,6.07-3.91,8.8.09-.08.17-.17.25-.26,1.33-1.51,2.17-3.1,2.98-4.63,1.46-2.77,2.84-5.39,6.78-6.85.22-.08.48-.04.65.13.18.16.25.41.19.64-1.41,5.4-1.55,9.5-.47,13.29.67,2.34,1.85,4.53,2.99,6.64.14.25.27.51.41.76,3.52-2.34,7.91-4.13,12.22-5.88,5.76-2.35,11.21-4.56,14.44-7.92,5.98-6.22,7.56-13.31,6.89-20.14-.16-.43-.22-.94-.18-1.5-.34-2.31-.92-4.57-1.66-6.76.13,1.72.17,3.44.08,5.16-.19,3.85-.51,8.21-1.87,11.35-1.66,3.83-4.1,4.47-7.47,5.35-.44.12-.91.24-1.39.37-.53.14-1.27.38-2.14.66-4.87,1.55-13.95,4.44-18.01,1.95-1.12-.69-1.81-1.73-2.03-3.1-.34-2.12,1.31-4.05,2.9-5.92.98-1.15,2-2.34,2.36-3.41.99-2.91.15-5.51-1.52-8.76-1.84-3.57-4.75-5.91-7.83-8.39-1.95-1.57-3.96-3.18-5.67-5.14-2.53-2.89-3.05-6.45-3.56-9.9-.43-2.92-.84-5.69-2.46-7.71-.84-1.05-2.06-1.53-3.34-2.04-1.55-.62-3.16-1.26-4.25-2.91-1.56-2.36-1.66-5.84-.31-10.64,1.04-3.7,2.64-7.14,4.18-10.46,1.61-3.46,3.27-7.04,4.28-10.89,1.79-6.76,2.76-14.76,2.75-22.53,0-1.63-.06-3.22-.11-4.76-.03-.83-.06-1.65-.07-2.47-3.87.86-8.46-.37-12.13-1.35-.65-.17-1.28-.34-1.88-.49-1.17-.29-2.47-.55-3.86-.82-5.83-1.14-13.09-2.56-15.62-8.12-2.39-5.27-1.69-10.03-.94-15.07.29-1.98.59-4.02.7-6.12.29-5.82-1.34-11.76-2.92-17.51-.3-1.09-.59-2.16-.87-3.22-.41-1.55-.89-3.06-1.36-4.53-1.8-5.62-3.51-10.94-.51-17.29,3.88-8.21,11.49-7.07,17.61-6.15,6.55.98,13.29.26,19.8-.45,1.33-.14,2.71-.29,4.05-.42l1.81-.17c9.35-.9,18.19-1.76,27.05-3.84,7.69-1.81,16.43-3.49,22.97-2.31,8.97,1.63,11.67,5.22,10.32,13.75-.23,1.44-.5,2.9-.79,4.45-.94,5.03-2,10.73-1.45,16.31,0,.1.02.19.03.29.77-.23,1.51-.08,2.17.46,3.42,2.78,3.69,16.25,3.24,18.23-.29,1.26-.62,2.34-1.01,3.24.85.13,1.48.49,1.9,1.06,1.01,1.39.41,3.64-.07,5.44-.18.69-.36,1.33-.37,1.72-.04.77-.02,1.5,0,2.21.04,2.26.08,4.4-1.63,6.82-.63.89-1.25,1.58-1.86,2.25-1.1,1.22-2.06,2.28-2.81,4.25,4.38,6.19-.19,10.88-4.24,15.04-.56.58-1.15,1.18-1.7,1.77-3.65,3.93-7.63,7.51-12.36,8.74-.2.65-.4,1.3-.6,1.95-.3.99-.61,1.97-.9,2.95,3.54,4.11,4.13,12.65,4.22,14.72.06,1.44.08,2.92,0,4.41,2.23,3.62,5.12,7.08,7.93,10.44,1.19,1.42,2.3,2.76,3.38,4.11,1.63,2.06,3.55,3.97,5.58,5.99.74.74,1.49,1.49,2.23,2.25,1.62-.3,3.24-.91,4.85-1.81,4.55-2.55,8.64-5.97,12.6-9.28,2.94-2.45,5.97-4.99,9.1-7.08,6.66-4.45,17.05-7.19,23.92-8.18,9.39-1.36,17.56-.92,26.48,1.41,4.43,1.16,8.7,3,12.82,4.77,3.93,1.69,8,3.44,12.2,4.6,13.47,3.71,28.55,2.23,42.45-4.17,7.59-3.49,14.7-7.71,20.56-12.18,5.7-4.36,11.94-9.5,14.97-14.62.18-.31.58-.41.88-.23.31.18.41.57.23.88-3.14,5.31-9.49,10.56-15.29,14.99-5.93,4.53-13.12,8.79-20.8,12.33-14.17,6.52-29.56,8.03-43.32,4.24-4.28-1.18-8.39-2.95-12.36-4.66-4.08-1.76-8.3-3.57-12.64-4.71-8.74-2.29-16.75-2.72-25.97-1.38-6.74.97-16.91,3.65-23.39,7.97-3.08,2.05-5.95,4.46-8.99,7-4.01,3.35-8.15,6.81-12.8,9.41-1.48.83-2.96,1.42-4.44,1.78,1.79,1.91,3.47,3.91,4.77,6.11,4.21,7.06-.08,13.68-4.28,18.66-1.95,2.31-4.18,4.78-7.23,7.12-.42.32-.95.78-1.57,1.3-2.13,1.81-5.05,4.3-7.1,4.6-.8.12-1.48.08-2.02-.09.39,7.53-2.07,14.18-7.37,19.7-3.42,3.55-8.98,5.82-14.88,8.22-4.29,1.75-8.67,3.53-12.1,5.84.63,1.22,1.23,2.48,1.68,3.78.06.18.04.37-.05.54-.09.16-.26.28-.44.31-1.23.22-2.21.93-3.24,1.68-1.36.99-2.77,2.01-4.8,1.91-.19,0-.37-.11-.49-.26-.11-.16-.15-.36-.1-.54.86-3.24,2.98-5.75,5.78-7.82-.16-.3-.32-.59-.48-.89-1.18-2.18-2.39-4.43-3.1-6.9-1.31-4.6-.71-9.09.14-12.69-2.61,1.34-3.7,3.4-4.93,5.74-.84,1.6-1.72,3.25-3.15,4.88-.49.56-1.09,1-1.74,1.35-1.04,4.69-.19,9,4.11,13.69.21.23.23.58.03.83-2.31,2.93-4.11,6.21-5.85,9.38-2.44,4.45-4.97,9.05-8.93,12.76-.12.11-.28.17-.44.17h0Z"/>
</svg>