<?xml version="1.0" encoding="UTF-8"?>
<svg id="_레이어_1" data-name="레이어 1" xmlns="http://www.w3.org/2000/svg" viewBox="0 0 606.43 155.37">
  <g>
    <path d="m29,65.76v-20.27h6.35v20.27h39.58v5.38H.88v-5.38h28.12Zm28.65-35.44c.09-2.38.18-4.85.18-7.49v-8.29H10.67v-5.46h53.6v10.49c0,15.78-1.06,25.92-3.17,36.41l-6.43-.71c1.32-6.7,2.2-12.96,2.73-19.57l-47.87.79-.18-5.55,48.31-.62Z"/>
    <path d="m150.73,36.67v5.29h-74.05v-5.29h74.05Zm-47.51-12.43c-4.58,2.03-10.67,4.58-18.25,7.4l-2.47-5.11c6.88-2.47,14.46-5.46,18.78-7.4,7.14-3.17,9.34-5.73,9.34-10.23V2.73h6.26v6.17c0,4.5,2.12,7.14,9.26,10.23,4.5,1.94,11.64,4.85,18.69,7.4l-2.2,5.03c-7.58-2.82-13.75-5.38-18.33-7.41-5.38-2.29-9.52-4.67-10.49-6.52h-.09c-.97,1.94-5.11,4.32-10.49,6.61Zm36.49,25.74v18.95h-45.93v8.73h48.31v5.2h-54.39v-19.04h45.93v-8.64h-46.37v-5.2h52.45Z"/>
    <path d="m164.3,38.17c18.42,0,28.03-.35,38.52-1.59l.53,5.38c-9.7,1.23-21.24,1.67-45.13,1.67v-21.6h28.83v-10.75h-28.83v-5.46h34.91v21.51h-28.83v10.84Zm54.74,11.46v32.88h-49.19v-32.88h6.08v10.4h37.02v-10.4h6.08Zm-6.08,27.33v-11.46h-37.02v11.46h37.02Zm6.08-32.09h-6.17V1.94h6.17v42.93Z"/>
    <path d="m302.34,48.21v5.38h-33.85v28.91h-6.26v-28.91h-33.94v-5.38h74.05Zm-37.02-24.51h-.09c-1.06,2.03-4.5,4.58-10.31,7.49-4.76,2.38-11.64,5.55-18.78,8.37l-2.73-4.94c6.52-2.47,13.84-5.73,19.48-8.64,6.79-3.44,9.26-6.35,9.26-14.19v-7.05h6.26v7.05c0,7.85,2.38,10.75,9.17,14.19,5.64,2.91,12.78,6.08,19.3,8.55l-2.64,4.85c-7.14-2.82-13.84-5.91-18.6-8.29-5.82-2.91-9.34-5.38-10.31-7.4Z"/>
    <path d="m345,44.95h-35.88V6.96h35.88v37.99Zm-5.91-32.53h-24.06v27.06h24.06V12.43Zm-11.11,63.64h45.13v5.46h-51.39v-26.36h6.26v20.89Zm37.02-61.26V1.94h6.08v57.65h-6.08v-21.95h-14.72v-5.38h14.72v-12.08h-14.72v-5.38h14.72Z"/>
    <path d="m443.1,4.49v11.37c0,5.73-.71,12.87-1.76,18.78h12.61v5.38h-74.05v-5.38h55.18c.71-3.17,1.15-6.7,1.5-10.05l-46.98.88-.18-5.55,47.51-.71c.09-1.06.09-2.12.09-3.08v-6.17h-46.63v-5.47h52.71Zm-.18,44.52v19.48h-45.93v9.08h48.31v5.29h-54.39v-19.57h45.93v-8.99h-46.37v-5.29h52.45Z"/>
    <path d="m468.04,56.94h12.08c8.9,0,18.51-.44,26.71-1.76l.71,5.38c-9.34,1.5-19.39,1.94-29,1.94h-16.66v-30.85h29.18V13.92h-29.18v-5.46h35.35v28.65h-29.18v19.83Zm54.12,25.56h-6.26V1.94h6.26v80.57Z"/>
    <path d="m543.76,6.34v29.35c17.1,0,25.65-.35,39.14-2.12l.71,5.55c-13.93,1.85-22.04,2.2-46.1,2.2V6.34h6.26Zm2.12,46.54h52.01v30.24h-6.17v-24.68h-45.84v-5.55Zm52.01-4.76h-6.17V1.94h6.17v46.19Z"/>
  </g>
  <g>
    <path d="m196.24,118.83h-1.85c-.43-4.17-4.59-7.73-11.29-7.73s-10.65,2.88-10.65,6.78c0,4.21,3.52,6.23,11.21,7.94,8.8,1.97,12.71,4.64,12.71,9.7,0,5.71-5.84,9.27-13.31,9.27s-12.97-4.12-13.48-10.13h1.85c.47,4.85,4.89,8.42,11.68,8.42s11.42-3.05,11.42-7.38c0-4.59-3.74-6.44-12.15-8.42-7.9-1.85-11.77-4.34-11.77-9.4s5.11-8.5,12.5-8.5,12.71,3.95,13.14,9.45Z"/>
    <path d="m204.87,110.15v33.92h-1.85v-33.92h1.85Z"/>
    <path d="m213.2,110.15h2.32l23.57,31.52v-31.52h1.85v33.92h-2.32l-23.57-31.52v31.52h-1.85v-33.92Z"/>
    <path d="m247.85,127.11c0-10.22,7.34-17.69,17.43-17.69,8.33,0,14.21,4.68,16.32,11.68h-1.93c-1.98-6.05-7.04-9.96-14.38-9.96-9.06,0-15.59,6.66-15.59,15.97s6.61,15.97,15.63,15.97c7.56,0,12.92-4.17,14.69-10.43h1.93c-1.85,7.26-8.03,12.15-16.62,12.15-10.09,0-17.48-7.47-17.48-17.69Z"/>
    <path d="m288.72,110.15h23.14v1.72h-21.3v14.04h19.79v1.72h-19.79v14.73h21.68v1.72h-23.53v-33.92Z"/>
    <path d="m328.83,141.41l12.2-12.24c4.38-4.42,6.1-7.21,6.1-9.66,0-4.04-2.75-6.4-7.04-6.4-4.64,0-7.13,3.52-7.13,7.34h-4.51c0-6.23,4.51-11.34,11.68-11.34s11.46,4.17,11.46,10.35c0,3.69-2.1,6.83-7.26,12.11l-9.02,8.84h17.43v3.91h-23.92v-2.92Z"/>
    <path d="m357.08,127.11c0-12.02,5.45-17.99,12.71-17.99s12.67,5.97,12.67,17.99-5.45,17.99-12.67,17.99-12.71-5.97-12.71-17.99Zm21.04,0c0-9.32-3.69-14-8.33-14s-8.37,4.68-8.37,14,3.69,14,8.37,14,8.33-4.64,8.33-14Z"/>
    <path d="m386.84,127.11c0-12.02,5.45-17.99,12.71-17.99s12.67,5.97,12.67,17.99-5.45,17.99-12.67,17.99-12.71-5.97-12.71-17.99Zm21.04,0c0-9.32-3.69-14-8.33-14s-8.37,4.68-8.37,14,3.69,14,8.37,14,8.33-4.64,8.33-14Z"/>
    <path d="m432.82,113.89h-18.38v-3.95h23.57v3.01l-14.43,31.39h-4.77l14-30.44Z"/>
  </g>
</svg>